<svg xmlns="http://www.w3.org/2000/svg" width="16" height="16" viewBox="0 0 16 16"><g fill="#000" fill-rule="evenodd"><path d="M7.144 7.664l7.188-6.56a.387.387 0 0 1 .573.053.466.466 0 0 1-.05.62L8.037 8l6.82 6.224a.466.466 0 0 1 .049.62.394.394 0 0 1-.311.156.39.39 0 0 1-.262-.103l-7.188-6.56A.455.455 0 0 1 7 8c0-.13.052-.252.144-.336"/><path d="M1.144 7.664l7.188-6.56a.387.387 0 0 1 .573.053.466.466 0 0 1-.05.62L2.037 8l6.82 6.224a.466.466 0 0 1 .049.62.394.394 0 0 1-.311.156.39.39 0 0 1-.262-.103l-7.188-6.56A.455.455 0 0 1 1 8c0-.13.052-.252.144-.336"/></g></svg>